<?xml version="1.0" encoding="UTF-8" standalone="no"?>
<!-- Created with Inkscape (http://www.inkscape.org/) -->

<svg
   xmlns:dc="http://purl.org/dc/elements/1.1/"
   xmlns:cc="http://creativecommons.org/ns#"
   xmlns:rdf="http://www.w3.org/1999/02/22-rdf-syntax-ns#"
   xmlns:svg="http://www.w3.org/2000/svg"
   xmlns="http://www.w3.org/2000/svg"
   xmlns:sodipodi="http://sodipodi.sourceforge.net/DTD/sodipodi-0.dtd"
   xmlns:inkscape="http://www.inkscape.org/namespaces/inkscape"
   width="210mm"
   height="297mm"
   viewBox="0 0 744.09448819 1052.3622047"
   id="svg3569"
   version="1.1"
   inkscape:version="0.91 r13725"
   sodipodi:docname="DNF_logo_dark.svg">
  <defs
     id="defs3571" />
  <sodipodi:namedview
     id="base"
     pagecolor="#ffffff"
     bordercolor="#666666"
     borderopacity="1.0"
     inkscape:pageopacity="0.0"
     inkscape:pageshadow="2"
     inkscape:zoom="0.35"
     inkscape:cx="375"
     inkscape:cy="520"
     inkscape:document-units="px"
     inkscape:current-layer="layer1"
     showgrid="false"
     inkscape:window-width="1920"
     inkscape:window-height="1009"
     inkscape:window-x="0"
     inkscape:window-y="34"
     inkscape:window-maximized="1" />
  <metadata
     id="metadata3574">
    <rdf:RDF>
      <cc:Work
         rdf:about="">
        <dc:format>image/svg+xml</dc:format>
        <dc:type
           rdf:resource="http://purl.org/dc/dcmitype/StillImage" />
        <dc:title></dc:title>
      </cc:Work>
    </rdf:RDF>
  </metadata>
  <g
     inkscape:label="Layer 1"
     inkscape:groupmode="layer"
     id="layer1">
    <g
       id="g4311"
       transform="matrix(1.0080119,0,0,1.0080119,-212.96686,-168.90777)">
      <rect
         y="519.50659"
         x="367.1893"
         height="307.02814"
         width="368.43378"
         id="rect4273"
         style="opacity:1;fill:#474747;fill-opacity:1;stroke:#333333;stroke-width:0.79964036;stroke-linecap:round;stroke-linejoin:round;stroke-miterlimit:4;stroke-dasharray:none;stroke-dashoffset:0;stroke-opacity:1" />
      <g
         transform="matrix(0.79964036,0,0,0.79964036,11.497923,104.00804)"
         id="g4275">
        <path
           sodipodi:nodetypes="scccscccssscsssccccssssscccss"
           inkscape:connector-curvature="0"
           id="path4255"
           d="m 634.85374,646.07111 c -6.38579,0 -12.11569,2.54824 -16.39439,6.5903 -0.19254,0.17922 -0.39068,0.35147 -0.57747,0.5368 -0.18533,0.18679 -0.35746,0.38493 -0.5368,0.57747 -4.04206,4.2787 -6.58786,10.0086 -6.58786,16.39439 l 0,0.25765 0,77.73455 0,0.12886 0,0.12872 c 0,0.37772 0.0137,0.75314 0.0305,1.12623 0.0587,1.24682 0.21232,2.46639 0.45581,3.65309 0.14593,0.71162 0.32643,1.40857 0.53447,2.09489 0.0343,0.11729 0.0659,0.23468 0.10266,0.35073 2.96921,9.45837 11.52992,16.34052 21.88936,16.84067 0.40131,0.0195 0.80568,0.0305 1.21212,0.0305 l 11.03064,0 0.77073,0 23.21607,0 c 11.78146,0 17.51807,-0.0379 25.65693,0 l 20.77999,0 c 13.20235,0 24.22773,-11.24527 24.22773,-24.22539 l 0,-77.99466 c 0,-12.73237 -11.49522,-24.22528 -24.22773,-24.22528 l -10.77299,0 c -0.0171,0 -0.0329,0 -0.0501,0 l -35.61385,0 -16.59718,0 c -0.027,-1.2e-4 -0.0501,0 -0.0757,0 z"
           style="color:#000000;font-style:normal;font-variant:normal;font-weight:normal;font-stretch:normal;font-size:medium;line-height:125%;font-family:days;-inkscape-font-specification:days;text-indent:0;text-align:start;text-decoration:none;text-decoration-line:none;text-decoration-style:solid;text-decoration-color:#000000;letter-spacing:0px;word-spacing:0px;text-transform:none;direction:ltr;block-progression:tb;writing-mode:lr-tb;baseline-shift:baseline;text-anchor:start;white-space:normal;clip-rule:nonzero;display:inline;overflow:visible;visibility:visible;opacity:1;isolation:auto;mix-blend-mode:normal;color-interpolation:sRGB;color-interpolation-filters:linearRGB;solid-color:#000000;solid-opacity:1;fill:#ffffff;fill-opacity:1;fill-rule:nonzero;stroke:none;stroke-width:1;stroke-linecap:round;stroke-linejoin:round;stroke-miterlimit:4;stroke-dasharray:none;stroke-dashoffset:0;stroke-opacity:1;color-rendering:auto;image-rendering:auto;shape-rendering:auto;text-rendering:auto;enable-background:accumulate" />
        <path
           style="opacity:1;fill:#e5e5e5;fill-opacity:1;stroke:none;stroke-width:1;stroke-linecap:round;stroke-linejoin:round;stroke-miterlimit:4;stroke-dasharray:none;stroke-dashoffset:4;stroke-opacity:1"
           d="m 630.34637,596.34011 90.72911,0 c 10.85243,0 19.58924,8.7368 19.58924,19.58925 0,10.85244 -8.73681,19.58924 -19.58924,19.58924 l -90.72911,0 c -10.85245,0 -19.58926,-8.7368 -19.58926,-19.58924 0,-10.85245 8.73681,-19.58925 19.58926,-19.58925 z"
           id="path4257"
           inkscape:connector-curvature="0" />
        <path
           style="opacity:1;fill:#e5e5e5;fill-opacity:1;stroke:none;stroke-width:1;stroke-linecap:round;stroke-linejoin:round;stroke-miterlimit:4;stroke-dasharray:none;stroke-dashoffset:4;stroke-opacity:1"
           d="m 630.34637,783.65265 90.72911,0 c 10.85243,0 19.58924,8.73681 19.58924,19.58924 0,10.85245 -8.73681,19.58925 -19.58924,19.58925 l -90.72911,0 c -10.85245,0 -19.58926,-8.7368 -19.58926,-19.58925 0,-10.85243 8.73681,-19.58924 19.58926,-19.58924 z"
           id="path4259"
           inkscape:connector-curvature="0" />
        <path
           style="opacity:1;fill:#e5e5e5;fill-opacity:1;stroke:none;stroke-width:1;stroke-linecap:round;stroke-linejoin:round;stroke-miterlimit:4;stroke-dasharray:none;stroke-dashoffset:4;stroke-opacity:1"
           d="m 560.02208,755.4722 0,-88.3111 c 0,-10.56322 8.50396,-19.06718 19.06718,-19.06718 10.56321,0 19.06717,8.50396 19.06717,19.06718 l 0,88.3111 c 0,10.5632 -8.50396,19.06717 -19.06717,19.06717 -10.56322,0 -19.06718,-8.50397 -19.06718,-19.06717 z"
           id="path4261"
           inkscape:connector-curvature="0" />
        <path
           style="opacity:1;fill:#e5e5e5;fill-opacity:1;stroke:none;stroke-width:1;stroke-linecap:round;stroke-linejoin:round;stroke-miterlimit:4;stroke-dasharray:none;stroke-dashoffset:4;stroke-opacity:1"
           d="m 752.22131,755.4722 0,-88.3111 c 0,-10.56322 8.50396,-19.06718 19.06717,-19.06718 10.56322,0 19.06717,8.50396 19.06717,19.06718 l 0,88.3111 c 0,10.5632 -8.50395,19.06717 -19.06717,19.06717 -10.56321,0 -19.06717,-8.50397 -19.06717,-19.06717 z"
           id="path4263"
           inkscape:connector-curvature="0" />
        <g
           style="font-style:normal;font-variant:normal;font-weight:normal;font-stretch:normal;font-size:35.74017715px;line-height:125%;font-family:days;-inkscape-font-specification:days;text-align:center;writing-mode:lr-tb;text-anchor:middle;opacity:1;fill:#474747;fill-opacity:1;stroke:none;stroke-width:2;stroke-linecap:round;stroke-linejoin:round;stroke-miterlimit:4;stroke-dasharray:none;stroke-dashoffset:4;stroke-opacity:1"
           id="g4265"
           transform="matrix(1.5232191,0,0,1.5232191,-118.44485,56.617349)">
          <path
             d="m 509.52979,431.39776 q 0,1.89422 -0.57184,3.64549 -0.53611,1.75127 -1.82275,3.1094 -1.28665,1.32239 -3.35958,2.14441 -2.07293,0.78628 -5.11084,0.78628 l -4.03864,0 q -0.57185,0 -1.07221,-0.21444 -0.50036,-0.21444 -0.8935,-0.5361 -0.35741,-0.3574 -0.60759,-0.82202 -0.21444,-0.46463 -0.21444,-1.00073 l 0,-20.08598 q 0,-0.5361 0.21444,-1.00072 0.25018,-0.46463 0.60759,-0.78629 0.39314,-0.3574 0.8935,-0.57184 0.50036,-0.21444 1.07221,-0.21444 l 4.03864,0 q 3.03791,0 5.11084,0.78628 2.07293,0.75055 3.35958,2.07293 1.28664,1.28665 1.82275,3.00218 0.57184,1.67979 0.57184,3.53828 l 0,6.14731 z m -5.00362,-6.14731 q 0,-1.00073 -0.28593,-1.89423 -0.28592,-0.89351 -0.8935,-1.53683 -0.60758,-0.67907 -1.64405,-1.03647 -1.00072,-0.39314 -2.43033,-0.39314 l -2.43033,0 0,16.15456 2.43033,0 q 1.46535,0 2.46607,-0.39314 1.00073,-0.42888 1.60831,-1.10795 0.64332,-0.7148 0.8935,-1.64404 0.28593,-0.92925 0.28593,-2.00145 l 0,-6.14731 z"
             style="font-style:normal;font-variant:normal;font-weight:bold;font-stretch:normal;font-family:'Blogger Sans';-inkscape-font-specification:'Blogger Sans Bold';fill:#474747;fill-opacity:1"
             id="path4267"
             inkscape:connector-curvature="0" />
          <path
             d="m 528.74907,441.40501 q -0.7148,0 -1.39387,-0.32167 -0.64332,-0.3574 -1.00072,-0.92924 l -8.29172,-14.43903 0,13.36682 q 0,0.92925 -0.75055,1.64405 -0.75054,0.67907 -1.78701,0.67907 -1.03646,0 -1.75126,-0.67907 -0.71481,-0.7148 -0.71481,-1.64405 l 0,-21.0867 q 0,-1.03647 0.71481,-1.71553 0.75054,-0.7148 1.89423,-0.7148 0.7148,0 1.35812,0.3574 0.67907,0.3574 1.07221,0.96498 1.17942,2.07293 2.14441,3.78846 1.00072,1.71553 1.92997,3.39532 0.96498,1.64405 1.96571,3.43106 1.00072,1.75126 2.25163,3.89568 l 0,-13.50979 q 0,-0.92925 0.75054,-1.60831 0.75055,-0.7148 1.78701,-0.7148 1.03647,0 1.75127,0.7148 0.7148,0.67906 0.7148,1.60831 l 0,21.0867 q 0,1.00073 -0.75054,1.71553 -0.7148,0.71481 -1.89423,0.71481 z"
             style="font-style:normal;font-variant:normal;font-weight:bold;font-stretch:normal;font-family:'Blogger Sans';-inkscape-font-specification:'Blogger Sans Bold';fill:#474747;fill-opacity:1"
             id="path4269"
             inkscape:connector-curvature="0" />
          <path
             d="m 540.95881,439.11763 q 0,0.92925 -0.75054,1.60831 -0.71481,0.67907 -1.75127,0.67907 -1.03647,0 -1.78701,-0.67907 -0.7148,-0.67906 -0.7148,-1.60831 l 0,-20.7293 q 0,-0.46462 0.21444,-0.92924 0.21444,-0.46463 0.57184,-0.82203 0.3574,-0.3574 0.85776,-0.57184 0.50037,-0.21444 1.10795,-0.21444 l 9.68559,0 q 1.03646,0 1.75127,0.7148 0.75054,0.67907 0.75054,1.60831 0,0.96498 -0.75054,1.60831 -0.71481,0.60758 -1.75127,0.60758 l -7.43396,0 0,5.78991 6.75489,0 q 0.92925,0 1.67979,0.64332 0.78629,0.64333 0.78629,1.60831 0,0.96499 -0.71481,1.64405 -0.7148,0.64332 -1.75127,0.64332 l -6.75489,0 0,8.39894 z"
             style="font-style:normal;font-variant:normal;font-weight:bold;font-stretch:normal;font-family:'Blogger Sans';-inkscape-font-specification:'Blogger Sans Bold';fill:#474747;fill-opacity:1"
             id="path4271"
             inkscape:connector-curvature="0" />
        </g>
      </g>
    </g>
  </g>
</svg>
